<svg width="52" height="15" viewBox="0 0 52 15" fill="none" xmlns="http://www.w3.org/2000/svg">
    <path d="M1.19921 11.829H5.83345V10.333C5.83345 9.5352 6.44322 9.17618 7.25624 9.17618C8.06927 9.17618 8.67904 9.55515 8.67904 10.333V11.829H13.3133C13.984 11.829 14.5328 12.3476 14.5328 12.9859C14.5328 13.6042 14.0043 14.1428 13.3133 14.1428H1.19921C0.54879 14.1428 0 13.6042 0 12.9859C0 12.3676 0.54879 11.829 1.19921 11.829ZM1.64638 8.77726C1.03661 8.77726 0.548794 8.29855 0.548794 7.70016V1.59663C0.548794 0.998245 1.03661 0.519531 1.64638 0.519531H12.8864C13.4962 0.519531 13.984 0.998245 13.984 1.59663V7.70016C13.984 8.29855 13.4962 8.77726 12.8864 8.77726H1.64638ZM3.35372 6.48345H11.1588V2.83329H3.35372V6.48345Z" fill="black"/>
    <path d="M18.4756 3.90945C18.4756 1.77521 20.4268 0.378958 22.7643 0.378958C25.1017 0.378958 27.0733 1.77521 27.0733 3.90945V10.6313C27.0733 12.7655 25.1017 14.1418 22.7643 14.1418C20.4268 14.1418 18.4756 12.7655 18.4756 10.6313V3.90945ZM21.3008 10.4917C21.3008 11.3494 21.9919 11.868 22.8049 11.868C23.618 11.868 24.2887 11.3494 24.2887 10.4917V4.069C24.2887 3.21132 23.618 2.67277 22.8049 2.67277C21.9919 2.67277 21.3008 3.21132 21.3008 4.069V10.4917ZM29.3498 1.39623C29.3498 0.598386 29.9799 0 30.7726 0C31.5653 0 32.1954 0.598386 32.1954 1.39623V13.324C32.1954 14.1219 31.5653 14.7203 30.7726 14.7203C29.9799 14.7203 29.3498 14.1219 29.3498 13.324V1.39623Z" fill="black"/>
    <path d="M36.8098 11.7483C38.822 9.97307 39.818 7.61943 39.818 3.55041V2.91214H37.6634C37.0333 2.91214 36.5049 2.39352 36.5049 1.77519C36.5049 1.11697 37.0333 0.618327 37.6634 0.618327H44.7977C45.4888 0.618327 45.9766 1.13691 45.9766 1.77519C45.9766 2.39352 45.4888 2.91214 44.7977 2.91214H42.6635V3.55041C42.6635 7.61943 43.6188 9.91325 45.6514 11.6885C45.936 11.9278 46.1392 12.2868 46.1392 12.7257C46.1392 13.4637 45.5904 14.0022 44.7977 14.0022C44.4319 14.0022 44.066 13.9025 43.8424 13.6831C42.6635 12.606 41.7895 11.4491 41.2407 9.83346C40.692 11.489 39.8383 12.6658 38.6594 13.7629C38.4358 13.9623 38.0496 14.082 37.7041 14.082C36.9114 14.082 36.3626 13.5435 36.3626 12.8054C36.322 12.3467 36.5252 11.9876 36.8098 11.7483ZM47.0742 1.39623C47.0742 0.598386 47.7043 0 48.497 0C49.2897 0 49.9198 0.598386 49.9198 1.39623V5.6647H50.6922C51.3426 5.6647 51.871 6.18331 51.871 6.82159C51.871 7.45986 51.3426 7.97848 50.6922 7.97848H49.9198V13.3041C49.9198 14.1019 49.2897 14.7003 48.497 14.7003C47.7043 14.7003 47.0742 14.1019 47.0742 13.3041V1.39623Z" fill="black"/>
</svg>
