<svg width="193" height="41" viewBox="0 0 193 41" fill="none" xmlns="http://www.w3.org/2000/svg">
<path d="M31.4117 7.90006C28.3983 3.1509 23.1022 0 17.0299 0C7.62463 0 0 7.62607 0 17.033C0 26.44 7.62463 34.066 17.0299 34.066C19.1757 34.066 21.1846 33.655 23.0565 32.9701C21.3672 30.3215 20.4084 27.2163 20.4084 23.8828C20.4541 16.5307 25.0197 10.3203 31.4117 7.90006Z" fill="#FFB500"/>
<path d="M37.484 6.75781C35.3381 6.75781 33.3292 7.16875 31.4573 7.85373C33.1466 10.5023 34.1054 13.6075 34.1054 16.9411C34.1054 24.2018 29.5397 30.4123 23.1478 32.8325C26.1612 37.5817 31.4573 40.7325 37.5296 40.7325C46.9348 40.7325 54.5595 33.1065 54.5595 23.6995C54.4682 14.3839 46.8435 6.75781 37.484 6.75781Z" fill="#0048FF"/>
<path d="M78.3009 30.642H88.7106V27.2171C88.7106 25.3905 90.0803 24.5686 91.9065 24.5686C93.7328 24.5686 95.1025 25.4362 95.1025 27.2171V30.642H105.512C107.019 30.642 108.252 31.8293 108.252 33.2906C108.252 34.7062 107.064 35.9391 105.512 35.9391H78.3009C76.8399 35.9391 75.6072 34.7062 75.6072 33.2906C75.6072 31.875 76.8399 30.642 78.3009 30.642ZM79.3054 23.6553C77.9357 23.6553 76.8399 22.5593 76.8399 21.1894V7.21592C76.8399 5.84597 77.9357 4.75 79.3054 4.75H104.553C105.923 4.75 107.019 5.84597 107.019 7.21592V21.1894C107.019 22.5593 105.923 23.6553 104.553 23.6553H79.3054ZM83.1405 18.4038H100.673V10.0471H83.1405V18.4038Z" fill="black"/>
<path d="M117.109 12.5128C117.109 7.62667 121.492 4.43009 126.742 4.43009C131.993 4.43009 136.422 7.62667 136.422 12.5128V27.9019C136.422 32.788 131.993 35.9389 126.742 35.9389C121.492 35.9389 117.109 32.788 117.109 27.9019V12.5128ZM123.455 27.5822C123.455 29.5458 125.007 30.7331 126.834 30.7331C128.66 30.7331 130.167 29.5458 130.167 27.5822V12.8781C130.167 10.9145 128.66 9.68156 126.834 9.68156C125.007 9.68156 123.455 10.9145 123.455 12.8781V27.5822ZM141.535 6.75904C141.535 4.93245 142.95 3.5625 144.731 3.5625C146.512 3.5625 147.927 4.93245 147.927 6.75904V34.0666C147.927 35.8932 146.512 37.2632 144.731 37.2632C142.95 37.2632 141.535 35.8932 141.535 34.0666V6.75904Z" fill="black"/>
<path d="M158.291 30.4591C162.811 26.3949 165.048 21.0065 165.048 11.6908V10.2296H160.209C158.793 10.2296 157.606 9.04225 157.606 7.62663C157.606 6.11969 158.793 4.9781 160.209 4.9781H176.234C177.786 4.9781 178.882 6.16536 178.882 7.62663C178.882 9.04225 177.786 10.2296 176.234 10.2296H171.44V11.6908C171.44 21.0065 173.586 26.258 178.152 30.3221C178.791 30.8701 179.247 31.6921 179.247 32.6967C179.247 34.3863 178.015 35.6193 176.234 35.6193C175.412 35.6193 174.59 35.3909 174.088 34.8886C171.44 32.4227 169.477 29.7741 168.244 26.0753C167.011 29.8655 165.094 32.5597 162.446 35.0713C161.943 35.5279 161.076 35.8019 160.3 35.8019C158.519 35.8019 157.287 34.569 157.287 32.8794C157.195 31.8291 157.652 31.0071 158.291 30.4591ZM181.347 6.75904C181.347 4.93245 182.763 3.5625 184.543 3.5625C186.324 3.5625 187.739 4.93245 187.739 6.75904V16.5313H189.474C190.935 16.5313 192.122 17.7186 192.122 19.1799C192.122 20.6412 190.935 21.8285 189.474 21.8285H187.739V34.021C187.739 35.8476 186.324 37.2175 184.543 37.2175C182.763 37.2175 181.347 35.8476 181.347 34.021V6.75904Z" fill="black"/>
</svg>
