<svg width="317" height="238" viewBox="0 0 317 238" fill="none" xmlns="http://www.w3.org/2000/svg">
    <path d="M182.7 46C165.1 18.3 134.2 0 99 0C44.3 0 0 44.3 0 99C0 153.7 44.3 198 99 198C111.4 198 123.2 195.7 134.2 191.6C124.5 176.3 118.8 158.1 118.8 138.6C118.8 96.3 145.3 60.2 182.7 46Z" fill="#FFB500"/>
    <path d="M217.8 39.5C205.4 39.5 193.6 41.8 182.6 45.9C192.3 61.2 198 79.4 198 98.9C198 141.2 171.5 177.3 134.1 191.5C151.7 219.2 182.6 237.5 217.8 237.5C272.5 237.5 316.8 193.2 316.8 138.5C316.8 83.8 272.5 39.5 217.8 39.5Z" fill="#0048FF"/>
</svg>
